<svg xmlns="http://www.w3.org/2000/svg" xmlns:xlink="http://www.w3.org/1999/xlink" width="34" zoomAndPan="magnify" viewBox="0 0 25.5 25.499999" height="34" preserveAspectRatio="xMidYMid meet" version="1.0"><defs><clipPath id="62a8128c4f"><path d="M 1.222656 12 L 6.371094 12 L 6.371094 14 L 1.222656 14 Z M 1.222656 12 " clip-rule="nonzero"/></clipPath><clipPath id="285363eeb7"><path d="M 3 9.976562 L 5 9.976562 L 5 15.125 L 3 15.125 Z M 3 9.976562 " clip-rule="nonzero"/></clipPath></defs><path fill="#000000" d="M 24.097656 14.460938 C 24.589844 14.460938 24.992188 14.058594 24.992188 13.570312 L 24.992188 11.410156 C 24.992188 10.921875 24.589844 10.519531 24.097656 10.519531 L 23.171875 10.519531 C 22.683594 10.519531 22.164062 10.136719 22.019531 9.667969 L 21.226562 7.746094 C 20.996094 7.316406 21.089844 6.675781 21.4375 6.332031 L 22.09375 5.675781 C 22.4375 5.328125 22.4375 4.761719 22.09375 4.414062 L 20.566406 2.886719 C 20.21875 2.539062 19.652344 2.539062 19.304688 2.886719 L 18.648438 3.542969 C 18.300781 3.890625 17.664062 3.984375 17.230469 3.753906 L 15.3125 2.960938 C 14.84375 2.816406 14.460938 2.296875 14.460938 1.808594 L 14.460938 0.882812 C 14.460938 0.390625 14.058594 -0.0117188 13.570312 -0.0117188 L 11.410156 -0.0117188 C 10.921875 -0.0117188 10.519531 0.390625 10.519531 0.882812 L 10.519531 1.808594 C 10.519531 2.296875 10.136719 2.816406 9.667969 2.960938 L 7.746094 3.753906 C 7.316406 3.984375 6.675781 3.890625 6.332031 3.542969 L 5.675781 2.886719 C 5.328125 2.539062 4.761719 2.539062 4.414062 2.886719 L 2.886719 4.414062 C 2.542969 4.761719 2.542969 5.328125 2.886719 5.675781 L 3.542969 6.332031 C 3.890625 6.675781 3.984375 7.316406 3.753906 7.746094 L 2.960938 9.667969 C 2.816406 10.136719 2.296875 10.519531 1.808594 10.519531 L 0.882812 10.519531 C 0.390625 10.519531 -0.0117188 10.921875 -0.0117188 11.410156 L -0.0117188 13.570312 C -0.0117188 14.058594 0.390625 14.460938 0.882812 14.460938 L 1.808594 14.460938 C 2.296875 14.460938 2.816406 14.84375 2.960938 15.3125 L 3.753906 17.234375 C 3.984375 17.664062 3.890625 18.300781 3.542969 18.648438 L 2.886719 19.304688 C 2.542969 19.652344 2.542969 20.21875 2.886719 20.566406 L 4.414062 22.09375 C 4.761719 22.4375 5.328125 22.4375 5.675781 22.09375 L 6.332031 21.4375 C 6.679688 21.089844 7.316406 20.996094 7.746094 21.226562 L 9.667969 22.019531 C 10.136719 22.164062 10.519531 22.679688 10.519531 23.171875 L 10.519531 24.097656 C 10.519531 24.589844 10.921875 24.992188 11.410156 24.992188 L 13.570312 24.992188 C 14.058594 24.992188 14.460938 24.589844 14.460938 24.097656 L 14.460938 23.171875 C 14.460938 22.679688 14.84375 22.164062 15.3125 22.019531 L 17.234375 21.226562 C 17.664062 20.996094 18.300781 21.089844 18.648438 21.4375 L 19.304688 22.09375 C 19.652344 22.4375 20.21875 22.4375 20.566406 22.09375 L 22.09375 20.566406 C 22.4375 20.21875 22.4375 19.652344 22.09375 19.304688 L 21.4375 18.648438 C 21.089844 18.300781 20.996094 17.664062 21.226562 17.230469 L 22.019531 15.3125 C 22.164062 14.84375 22.683594 14.460938 23.171875 14.460938 Z M 12.488281 17.632812 C 9.648438 17.632812 7.347656 15.332031 7.347656 12.488281 C 7.347656 9.648438 9.648438 7.347656 12.488281 7.347656 C 15.332031 7.347656 17.632812 9.648438 17.632812 12.488281 C 17.632812 15.332031 15.332031 17.632812 12.488281 17.632812 Z M 12.488281 17.632812 " fill-opacity="1" fill-rule="nonzero"/><g clip-path="url(#62a8128c4f)"><path fill="#000000" d="M 6.117188 13.066406 L 1.480469 13.066406 C 1.328125 13.066406 1.222656 12.960938 1.222656 12.808594 L 1.222656 12.292969 C 1.222656 12.140625 1.328125 12.035156 1.480469 12.035156 L 6.117188 12.035156 C 6.269531 12.035156 6.371094 12.140625 6.371094 12.292969 L 6.371094 12.808594 C 6.371094 12.960938 6.269531 13.066406 6.117188 13.066406 Z M 6.117188 13.066406 " fill-opacity="1" fill-rule="nonzero"/></g><g clip-path="url(#285363eeb7)"><path fill="#000000" d="M 3.285156 14.867188 L 3.285156 10.234375 C 3.285156 10.078125 3.386719 9.976562 3.539062 9.976562 L 4.054688 9.976562 C 4.210938 9.976562 4.3125 10.078125 4.3125 10.234375 L 4.3125 14.867188 C 4.3125 15.023438 4.210938 15.125 4.054688 15.125 L 3.539062 15.125 C 3.386719 15.125 3.285156 15.023438 3.285156 14.867188 Z M 3.285156 14.867188 " fill-opacity="1" fill-rule="nonzero"/></g></svg>